<svg xmlns="http://www.w3.org/2000/svg" xmlns:xlink="http://www.w3.org/1999/xlink" width="77" zoomAndPan="magnify" viewBox="0 0 57.75 46.499999" height="62" preserveAspectRatio="xMidYMid meet" version="1.0"><path fill="#000000" d="M 26.171875 7.074219 L 20.613281 21.820312 C 21.175781 22 21.746094 22.242188 22.328125 22.519531 L 32.007812 22.519531 Z M 23.785156 23.257812 C 31.695312 27.566406 41.960938 37.429688 48.726562 34.777344 C 58.703125 30.863281 49.824219 15.074219 44.410156 21.589844 C 43.769531 24.214844 41.960938 24.351562 40.769531 23.507812 C 39.539062 22.628906 39.445312 20.410156 41.5 19.574219 C 46.488281 17.53125 50.929688 20.089844 52.917969 23.863281 C 54.699219 27.222656 54.605469 31.507812 51.796875 34.03125 C 48.980469 36.570312 45.792969 36.617188 42.714844 35.65625 L 43.605469 38 L 48.320312 38 L 48.320312 38.742188 L 32.007812 38.742188 L 32.007812 38 L 37.890625 38 L 35.652344 32.082031 C 25.390625 25.644531 11.339844 15.222656 5.492188 28.402344 C 1.558594 37.28125 8.792969 46.734375 16.226562 43.976562 C 16.933594 43.714844 17.597656 43.253906 18.15625 42.527344 C 18.828125 39.164062 21.125 38.890625 22.664062 39.90625 C 24.273438 40.96875 24.523438 43.839844 21.945312 44.921875 C 19.203125 46.089844 14.992188 46.019531 11.535156 44.910156 C -2.140625 40.507812 2.746094 16.808594 19.824219 21.570312 L 27.941406 0.015625 L 29.207031 0.015625 L 41.859375 33.34375 C 39.507812 32.339844 37.042969 30.816406 34.574219 29.171875 L 32.339844 23.253906 L 23.785156 23.253906 Z M 8.957031 38 L 13.628906 38 L 18.742188 24.402344 C 18.992188 24.496094 19.242188 24.582031 19.496094 24.675781 L 14.472656 38 L 20.351562 38 L 20.351562 38.742188 L 8.957031 38.742188 Z M 8.957031 38 " fill-opacity="1" fill-rule="evenodd"/></svg>