<svg xmlns="http://www.w3.org/2000/svg" xmlns:xlink="http://www.w3.org/1999/xlink" width="400" zoomAndPan="magnify" viewBox="0 0 300 112.499997" height="150" preserveAspectRatio="xMidYMid meet" version="1.2"><defs><clipPath id="73fa1eb552"><path d="M 0.664062 35 L 299.335938 35 L 299.335938 76 L 0.664062 76 Z M 0.664062 35 "/></clipPath><clipPath id="7d48c41f87"><path d="M 0.664062 2 L 35 2 L 35 31 L 0.664062 31 Z M 0.664062 2 "/></clipPath><clipPath id="80c7d6e5de"><rect x="0" width="300" y="0" height="41"/></clipPath></defs><g id="a85273b32d"><g clip-rule="nonzero" clip-path="url(#73fa1eb552)"><g transform="matrix(1,0,0,1,0,35)"><g clip-path="url(#80c7d6e5de)"><g clip-rule="nonzero" clip-path="url(#7d48c41f87)"><g style="fill:#000000;fill-opacity:1;"><g transform="translate(0.688316, 30.445681)"><path style="stroke:none" d="M 0.203125 0 L 15.15625 -28.109375 L 19.0625 -28.109375 L 33.9375 0 L 30.421875 0 L 26.71875 -6.734375 L 7.421875 -6.734375 L 3.75 0 Z M 8.890625 -9.6875 L 25.28125 -9.6875 L 17.140625 -25.203125 L 17.0625 -25.203125 Z M 8.890625 -9.6875 "/></g></g></g><g style="fill:#000000;fill-opacity:1;"><g transform="translate(34.816163, 30.445681)"><path style="stroke:none" d="M 16.34375 -20.9375 C 19.9375 -20.9375 22.75 -20.046875 24.78125 -18.265625 C 26.8125 -16.484375 27.828125 -14.007812 27.828125 -10.84375 L 27.828125 0 L 24.765625 0 L 24.765625 -10.53125 C 24.765625 -12.914062 23.976562 -14.78125 22.40625 -16.125 C 20.84375 -17.46875 18.640625 -18.140625 15.796875 -18.140625 C 12.285156 -18.140625 9.546875 -17.289062 7.578125 -15.59375 C 5.609375 -13.894531 4.625 -11.539062 4.625 -8.53125 L 4.625 0 L 1.59375 0 L 1.59375 -20.140625 L 4.34375 -20.140625 L 4.671875 -15.234375 L 4.703125 -15.234375 C 5.628906 -17.035156 7.113281 -18.4375 9.15625 -19.4375 C 11.207031 -20.4375 13.601562 -20.9375 16.34375 -20.9375 Z M 16.34375 -20.9375 "/></g></g><g style="fill:#000000;fill-opacity:1;"><g transform="translate(64.040125, 30.445681)"><path style="stroke:none" d="M 16.34375 0.796875 C 13.445312 0.796875 10.851562 0.316406 8.5625 -0.640625 C 6.28125 -1.597656 4.484375 -2.910156 3.171875 -4.578125 C 1.859375 -6.253906 1.203125 -8.15625 1.203125 -10.28125 C 1.203125 -12.351562 1.804688 -14.1875 3.015625 -15.78125 C 4.222656 -17.382812 5.882812 -18.644531 8 -19.5625 C 10.113281 -20.476562 12.535156 -20.9375 15.265625 -20.9375 C 17.953125 -20.9375 20.335938 -20.476562 22.421875 -19.5625 C 24.515625 -18.644531 26.160156 -17.378906 27.359375 -15.765625 C 28.554688 -14.160156 29.15625 -12.320312 29.15625 -10.25 C 29.15625 -10.0625 29.144531 -9.820312 29.125 -9.53125 C 29.113281 -9.238281 29.09375 -8.984375 29.0625 -8.765625 L 4.703125 -8.765625 C 4.890625 -7.460938 5.535156 -6.3125 6.640625 -5.3125 C 7.742188 -4.320312 9.164062 -3.539062 10.90625 -2.96875 C 12.644531 -2.394531 14.566406 -2.109375 16.671875 -2.109375 C 18.347656 -2.109375 19.972656 -2.285156 21.546875 -2.640625 C 23.128906 -3.003906 24.554688 -3.5 25.828125 -4.125 C 27.109375 -4.75 28.125 -5.460938 28.875 -6.265625 L 30.625 -4.0625 C 29.695312 -3.132812 28.488281 -2.296875 27 -1.546875 C 25.507812 -0.804688 23.847656 -0.234375 22.015625 0.171875 C 20.179688 0.585938 18.289062 0.796875 16.34375 0.796875 Z M 4.625 -11.484375 L 25.875 -11.484375 C 25.738281 -12.835938 25.171875 -14 24.171875 -14.96875 C 23.179688 -15.9375 21.894531 -16.679688 20.3125 -17.203125 C 18.726562 -17.722656 16.984375 -17.984375 15.078125 -17.984375 C 13.210938 -17.984375 11.507812 -17.703125 9.96875 -17.140625 C 8.425781 -16.585938 7.179688 -15.816406 6.234375 -14.828125 C 5.296875 -13.847656 4.757812 -12.734375 4.625 -11.484375 Z M 4.625 -11.484375 "/></g></g><g style="fill:#000000;fill-opacity:1;"><g transform="translate(95.77583, 30.445681)"><path style="stroke:none" d="M 1.59375 0 L 1.59375 -29.3125 L 4.625 -29.3125 L 4.625 0 Z M 1.59375 0 "/></g></g><g style="fill:#000000;fill-opacity:1;"><g transform="translate(101.995393, 30.445681)"><path style="stroke:none" d="M 11.40625 0.796875 C 8.03125 0.796875 5.414062 0.304688 3.5625 -0.671875 C 1.71875 -1.660156 0.796875 -3.125 0.796875 -5.0625 C 0.796875 -6.945312 1.796875 -8.460938 3.796875 -9.609375 C 5.804688 -10.753906 8.859375 -11.484375 12.953125 -11.796875 L 23.171875 -12.5625 C 24.253906 -12.644531 24.796875 -13.109375 24.796875 -13.953125 C 24.796875 -14.722656 24.394531 -15.421875 23.59375 -16.046875 C 22.800781 -16.671875 21.71875 -17.175781 20.34375 -17.5625 C 18.976562 -17.945312 17.421875 -18.140625 15.671875 -18.140625 C 13.921875 -18.140625 12.195312 -17.945312 10.5 -17.5625 C 8.8125 -17.175781 7.316406 -16.644531 6.015625 -15.96875 C 4.710938 -15.289062 3.734375 -14.515625 3.078125 -13.640625 L 1.28125 -15.671875 C 2.050781 -16.679688 3.175781 -17.578125 4.65625 -18.359375 C 6.144531 -19.140625 7.847656 -19.765625 9.765625 -20.234375 C 11.679688 -20.703125 13.632812 -20.9375 15.625 -20.9375 C 17.226562 -20.9375 18.753906 -20.773438 20.203125 -20.453125 C 21.648438 -20.140625 22.941406 -19.671875 24.078125 -19.046875 C 25.222656 -18.421875 26.117188 -17.648438 26.765625 -16.734375 C 27.421875 -15.816406 27.75 -14.757812 27.75 -13.5625 L 27.75 -4.234375 C 27.75 -3.566406 27.941406 -3.023438 28.328125 -2.609375 C 28.710938 -2.203125 29.238281 -2 29.90625 -2 C 30.519531 -2 31.070312 -2.132812 31.5625 -2.40625 C 32.050781 -2.6875 32.429688 -3.054688 32.703125 -3.515625 L 34.375 -1.5625 C 33.945312 -0.84375 33.28125 -0.269531 32.375 0.15625 C 31.46875 0.582031 30.484375 0.796875 29.421875 0.796875 C 28.046875 0.796875 26.9375 0.390625 26.09375 -0.421875 C 25.257812 -1.234375 24.816406 -2.289062 24.765625 -3.59375 L 24.71875 -4.390625 L 24.6875 -4.390625 C 23.988281 -3.378906 22.972656 -2.476562 21.640625 -1.6875 C 20.316406 -0.90625 18.773438 -0.296875 17.015625 0.140625 C 15.265625 0.578125 13.394531 0.796875 11.40625 0.796875 Z M 11.6875 -1.796875 C 14.132812 -1.796875 16.335938 -2.125 18.296875 -2.78125 C 20.265625 -3.445312 21.828125 -4.335938 22.984375 -5.453125 C 24.140625 -6.578125 24.71875 -7.816406 24.71875 -9.171875 L 24.71875 -10.171875 L 13.28125 -9.296875 C 6.976562 -8.816406 3.828125 -7.5 3.828125 -5.34375 C 3.828125 -2.976562 6.445312 -1.796875 11.6875 -1.796875 Z M 11.6875 -1.796875 "/></g></g><g style="fill:#000000;fill-opacity:1;"><g transform="translate(136.362443, 30.445681)"><path style="stroke:none" d=""/></g></g><g style="fill:#000000;fill-opacity:1;"><g transform="translate(148.841428, 30.445681)"><path style="stroke:none" d="M 13.59375 0 L 13.59375 -25.15625 L 0.203125 -25.15625 L 0.203125 -28.109375 L 30.3125 -28.109375 L 30.3125 -25.15625 L 16.90625 -25.15625 L 16.90625 0 Z M 13.59375 0 "/></g></g><g style="fill:#000000;fill-opacity:1;"><g transform="translate(179.341197, 30.445681)"><path style="stroke:none" d="M 12.84375 -20.96875 C 15.050781 -20.96875 16.863281 -20.359375 18.28125 -19.140625 C 19.707031 -17.921875 20.539062 -16.191406 20.78125 -13.953125 L 18.109375 -13.078125 C 17.941406 -14.722656 17.347656 -15.976562 16.328125 -16.84375 C 15.304688 -17.707031 14.023438 -18.140625 12.484375 -18.140625 C 10.003906 -18.140625 8.070312 -17.269531 6.6875 -15.53125 C 5.3125 -13.789062 4.625 -11.414062 4.625 -8.40625 L 4.625 0 L 1.59375 0 L 1.59375 -20.140625 L 4.34375 -20.140625 L 4.671875 -15.90625 L 4.703125 -15.90625 C 5.472656 -17.476562 6.554688 -18.710938 7.953125 -19.609375 C 9.347656 -20.515625 10.976562 -20.96875 12.84375 -20.96875 Z M 12.84375 -20.96875 "/></g></g><g style="fill:#000000;fill-opacity:1;"><g transform="translate(200.910317, 30.445681)"><path style="stroke:none" d="M 11.40625 0.796875 C 8.03125 0.796875 5.414062 0.304688 3.5625 -0.671875 C 1.71875 -1.660156 0.796875 -3.125 0.796875 -5.0625 C 0.796875 -6.945312 1.796875 -8.460938 3.796875 -9.609375 C 5.804688 -10.753906 8.859375 -11.484375 12.953125 -11.796875 L 23.171875 -12.5625 C 24.253906 -12.644531 24.796875 -13.109375 24.796875 -13.953125 C 24.796875 -14.722656 24.394531 -15.421875 23.59375 -16.046875 C 22.800781 -16.671875 21.71875 -17.175781 20.34375 -17.5625 C 18.976562 -17.945312 17.421875 -18.140625 15.671875 -18.140625 C 13.921875 -18.140625 12.195312 -17.945312 10.5 -17.5625 C 8.8125 -17.175781 7.316406 -16.644531 6.015625 -15.96875 C 4.710938 -15.289062 3.734375 -14.515625 3.078125 -13.640625 L 1.28125 -15.671875 C 2.050781 -16.679688 3.175781 -17.578125 4.65625 -18.359375 C 6.144531 -19.140625 7.847656 -19.765625 9.765625 -20.234375 C 11.679688 -20.703125 13.632812 -20.9375 15.625 -20.9375 C 17.226562 -20.9375 18.753906 -20.773438 20.203125 -20.453125 C 21.648438 -20.140625 22.941406 -19.671875 24.078125 -19.046875 C 25.222656 -18.421875 26.117188 -17.648438 26.765625 -16.734375 C 27.421875 -15.816406 27.75 -14.757812 27.75 -13.5625 L 27.75 -4.234375 C 27.75 -3.566406 27.941406 -3.023438 28.328125 -2.609375 C 28.710938 -2.203125 29.238281 -2 29.90625 -2 C 30.519531 -2 31.070312 -2.132812 31.5625 -2.40625 C 32.050781 -2.6875 32.429688 -3.054688 32.703125 -3.515625 L 34.375 -1.5625 C 33.945312 -0.84375 33.28125 -0.269531 32.375 0.15625 C 31.46875 0.582031 30.484375 0.796875 29.421875 0.796875 C 28.046875 0.796875 26.9375 0.390625 26.09375 -0.421875 C 25.257812 -1.234375 24.816406 -2.289062 24.765625 -3.59375 L 24.71875 -4.390625 L 24.6875 -4.390625 C 23.988281 -3.378906 22.972656 -2.476562 21.640625 -1.6875 C 20.316406 -0.90625 18.773438 -0.296875 17.015625 0.140625 C 15.265625 0.578125 13.394531 0.796875 11.40625 0.796875 Z M 11.6875 -1.796875 C 14.132812 -1.796875 16.335938 -2.125 18.296875 -2.78125 C 20.265625 -3.445312 21.828125 -4.335938 22.984375 -5.453125 C 24.140625 -6.578125 24.71875 -7.816406 24.71875 -9.171875 L 24.71875 -10.171875 L 13.28125 -9.296875 C 6.976562 -8.816406 3.828125 -7.5 3.828125 -5.34375 C 3.828125 -2.976562 6.445312 -1.796875 11.6875 -1.796875 Z M 11.6875 -1.796875 "/></g></g><g style="fill:#000000;fill-opacity:1;"><g transform="translate(235.277367, 30.445681)"><path style="stroke:none" d="M 1.59375 0 L 1.59375 -29.3125 L 4.625 -29.3125 L 4.625 -10.96875 L 4.671875 -10.96875 L 19.8125 -20.140625 L 25.15625 -20.140625 L 11.84375 -12.125 L 25.515625 0 L 21.296875 0 L 9.453125 -10.640625 L 4.625 -7.78125 L 4.625 0 Z M 1.59375 0 "/></g></g><g style="fill:#000000;fill-opacity:1;"><g transform="translate(260.793509, 30.445681)"><path style="stroke:none" d="M 3.59375 -24.046875 C 2.925781 -24.046875 2.382812 -24.25 1.96875 -24.65625 C 1.5625 -25.070312 1.359375 -25.613281 1.359375 -26.28125 C 1.359375 -26.945312 1.5625 -27.476562 1.96875 -27.875 C 2.382812 -28.269531 2.925781 -28.46875 3.59375 -28.46875 C 4.28125 -28.46875 4.828125 -28.269531 5.234375 -27.875 C 5.648438 -27.476562 5.859375 -26.945312 5.859375 -26.28125 C 5.859375 -25.613281 5.648438 -25.070312 5.234375 -24.65625 C 4.828125 -24.25 4.28125 -24.046875 3.59375 -24.046875 Z M 2.078125 0 L 2.078125 -20.140625 L 5.109375 -20.140625 L 5.109375 0 Z M 2.078125 0 "/></g></g><g style="fill:#000000;fill-opacity:1;"><g transform="translate(268.009793, 30.445681)"><path style="stroke:none" d="M 15.234375 0.796875 C 12.441406 0.796875 9.988281 0.347656 7.875 -0.546875 C 5.757812 -1.453125 4.117188 -2.722656 2.953125 -4.359375 C 1.785156 -5.992188 1.203125 -7.890625 1.203125 -10.046875 C 1.203125 -12.222656 1.796875 -14.128906 2.984375 -15.765625 C 4.179688 -17.398438 5.828125 -18.671875 7.921875 -19.578125 C 10.023438 -20.484375 12.4375 -20.9375 15.15625 -20.9375 C 17.226562 -20.9375 19.113281 -20.671875 20.8125 -20.140625 C 22.507812 -19.609375 23.96875 -18.863281 25.1875 -17.90625 C 26.414062 -16.945312 27.296875 -15.816406 27.828125 -14.515625 L 25.046875 -13.484375 C 24.460938 -14.941406 23.316406 -16.109375 21.609375 -16.984375 C 19.910156 -17.859375 17.863281 -18.296875 15.46875 -18.296875 C 13.289062 -18.296875 11.347656 -17.953125 9.640625 -17.265625 C 7.941406 -16.578125 6.613281 -15.613281 5.65625 -14.375 C 4.707031 -13.132812 4.234375 -11.691406 4.234375 -10.046875 C 4.234375 -8.398438 4.707031 -6.957031 5.65625 -5.71875 C 6.613281 -4.488281 7.945312 -3.523438 9.65625 -2.828125 C 11.375 -2.140625 13.351562 -1.796875 15.59375 -1.796875 C 17.507812 -1.796875 19.289062 -2.082031 20.9375 -2.65625 C 22.582031 -3.226562 23.988281 -4.019531 25.15625 -5.03125 C 26.332031 -6.039062 27.144531 -7.207031 27.59375 -8.53125 L 30.5 -7.578125 C 29.863281 -5.929688 28.800781 -4.472656 27.3125 -3.203125 C 25.820312 -1.941406 24.039062 -0.957031 21.96875 -0.25 C 19.894531 0.445312 17.648438 0.796875 15.234375 0.796875 Z M 15.234375 0.796875 "/></g></g></g></g></g></g></svg>