<svg xmlns="http://www.w3.org/2000/svg" xmlns:xlink="http://www.w3.org/1999/xlink" width="227" zoomAndPan="magnify" viewBox="0 0 170.25 54" height="72" preserveAspectRatio="xMidYMid meet" version="1.2"><defs><clipPath id="7fb6763f88"><path d="M 76 18.570312 L 93 18.570312 L 93 34.769531 L 76 34.769531 Z M 76 18.570312 "/></clipPath><clipPath id="8ed19d2280"><path d="M 56 18.570312 L 73 18.570312 L 73 34.769531 L 56 34.769531 Z M 56 18.570312 "/></clipPath><clipPath id="cb73862d92"><path d="M 97 18.570312 L 114 18.570312 L 114 34.769531 L 97 34.769531 Z M 97 18.570312 "/></clipPath></defs><g id="b97ee30687"><path style=" stroke:none;fill-rule:nonzero;fill:#000000;fill-opacity:1;" d="M 2.367188 26.953125 C 2.214844 26.953125 2.089844 26.824219 2.089844 26.667969 C 2.089844 26.511719 2.214844 26.382812 2.367188 26.382812 L 167.152344 26.382812 C 167.304688 26.382812 167.429688 26.511719 167.429688 26.667969 C 167.429688 26.824219 167.304688 26.953125 167.152344 26.953125 Z M 2.367188 26.953125 "/><g clip-rule="nonzero" clip-path="url(#7fb6763f88)"><path style=" stroke:none;fill-rule:evenodd;fill:#000000;fill-opacity:1;" d="M 84.664062 34.773438 L 83.753906 27.667969 L 76.816406 26.570312 L 83.78125 25.644531 L 84.855469 18.5625 L 85.765625 25.667969 L 92.703125 26.765625 L 85.742188 27.691406 Z M 84.664062 34.773438 "/></g><g clip-rule="nonzero" clip-path="url(#8ed19d2280)"><path style=" stroke:none;fill-rule:evenodd;fill:#000000;fill-opacity:1;" d="M 64.179688 34.773438 L 63.273438 27.667969 L 56.332031 26.570312 L 63.296875 25.644531 L 64.375 18.5625 L 65.28125 25.667969 L 72.222656 26.765625 L 65.257812 27.691406 Z M 64.179688 34.773438 "/></g><g clip-rule="nonzero" clip-path="url(#cb73862d92)"><path style=" stroke:none;fill-rule:evenodd;fill:#000000;fill-opacity:1;" d="M 105.144531 34.773438 L 104.234375 27.667969 L 97.296875 26.570312 L 104.261719 25.644531 L 105.339844 18.5625 L 106.246094 25.667969 L 113.183594 26.765625 L 106.222656 27.691406 Z M 105.144531 34.773438 "/></g></g></svg>